<?xml version="1.0" standalone="no"?>
<!DOCTYPE svg PUBLIC "-//W3C//DTD SVG 20010904//EN"
 "http://www.w3.org/TR/2001/REC-SVG-20010904/DTD/svg10.dtd">
<svg version="1.0" xmlns="http://www.w3.org/2000/svg"
 width="1458.000000pt" height="1194.000000pt" viewBox="0 0 1458.000000 1194.000000"
 preserveAspectRatio="xMidYMid meet">

<g transform="translate(0.000000,1194.000000) scale(0.100000,-0.100000)"
fill="#153F3C" stroke="none">
<path d="M9535 11730 c-185 -15 -328 -40 -500 -91 -209 -62 -469 -174 -610
-264 -274 -173 -331 -215 -457 -332 -180 -168 -309 -321 -440 -523 -36 -55
-158 -268 -158 -275 0 -3 -12 -30 -26 -62 -66 -144 -146 -389 -187 -572 -13
-55 -28 -106 -33 -111 -11 -11 -110 -1 -194 20 -145 37 -194 42 -439 47 -177
4 -277 2 -330 -7 -185 -30 -566 -138 -659 -186 -15 -7 -31 -14 -37 -14 -5 0
-23 33 -38 73 -16 39 -33 80 -38 89 -5 10 -9 25 -9 33 0 8 -4 23 -9 33 -5 9
-21 47 -35 85 -57 147 -110 259 -191 395 -67 113 -228 321 -346 446 -104 110
-326 295 -447 371 -9 6 -38 25 -64 43 -26 17 -50 32 -52 32 -2 0 -46 24 -97
53 -201 112 -433 203 -624 242 -81 17 -130 27 -207 44 -91 21 -325 34 -478 27
-155 -6 -319 -20 -375 -31 -110 -21 -148 -30 -210 -47 -38 -11 -83 -23 -100
-28 -353 -96 -786 -353 -1083 -644 -133 -129 -323 -366 -397 -494 -5 -9 -17
-28 -26 -42 -31 -47 -117 -215 -144 -280 -15 -36 -34 -81 -42 -100 -25 -57
-29 -70 -68 -195 -20 -66 -40 -127 -42 -135 -10 -28 -39 -176 -53 -272 -25
-166 -29 -222 -29 -353 0 -160 18 -346 43 -450 2 -11 10 -47 16 -80 17 -87 62
-245 90 -310 4 -11 13 -36 20 -55 13 -39 15 -44 56 -145 31 -78 127 -268 183
-360 170 -283 452 -573 763 -784 48 -34 91 -61 95 -61 4 0 14 -6 22 -14 22
-19 169 -95 268 -140 163 -73 298 -117 533 -176 111 -28 417 -60 563 -60 162
0 472 34 553 60 34 11 71 20 83 20 25 0 242 69 256 81 5 5 15 9 22 9 32 0 333
149 459 228 121 75 370 277 486 394 137 138 308 353 374 473 6 11 28 49 49 83
54 92 139 275 165 357 12 39 26 79 31 90 21 54 46 147 89 340 11 48 25 154 40
290 18 156 19 160 48 187 15 14 61 38 102 53 41 15 93 34 115 42 22 9 54 19
70 24 17 4 71 19 120 34 173 49 222 55 472 55 217 0 245 -2 352 -26 64 -14
144 -34 179 -45 34 -10 75 -19 91 -19 42 0 81 -58 81 -120 0 -26 12 -85 41
-195 16 -62 70 -237 84 -270 6 -16 18 -46 25 -65 35 -98 105 -237 205 -404 50
-85 60 -100 149 -216 107 -141 128 -165 254 -294 107 -108 223 -207 293 -251
9 -5 42 -27 73 -47 31 -21 59 -38 63 -38 3 0 14 -7 24 -16 54 -49 398 -213
514 -244 17 -4 57 -17 90 -29 276 -94 615 -133 988 -113 177 10 240 20 452 74
98 25 287 87 299 99 6 5 16 9 23 9 28 0 262 115 380 187 239 145 498 370 674
588 64 78 159 211 159 221 0 3 18 31 40 63 49 73 190 346 219 426 89 240 111
316 145 505 37 202 48 461 26 627 -41 308 -41 310 -85 483 -41 163 -56 214
-71 244 -7 16 -14 35 -14 43 0 7 -4 21 -9 31 -10 19 -23 50 -42 102 -16 41
-104 204 -147 271 -20 32 -141 199 -180 249 -142 184 -354 395 -502 501 -103
73 -274 174 -405 238 -246 121 -449 189 -715 239 -162 31 -476 46 -665 32z
m612 -692 c28 -7 55 -16 59 -21 4 -4 17 -7 29 -7 21 0 172 -50 235 -78 378
-167 654 -385 865 -681 62 -87 73 -103 120 -186 113 -200 199 -438 226 -625
43 -305 31 -556 -40 -824 -93 -354 -213 -575 -455 -840 -273 -299 -638 -505
-1049 -594 -114 -24 -139 -26 -382 -26 -271 0 -324 6 -525 60 -487 132 -903
445 -1165 879 -32 52 -61 111 -102 205 -13 30 -28 64 -33 75 -15 32 -66 192
-90 280 -32 118 -39 155 -56 315 -16 148 -10 288 17 440 35 192 40 211 76 315
53 151 137 320 220 440 224 327 511 579 808 709 61 27 120 52 133 57 12 5 32
13 45 18 42 17 195 61 213 61 11 0 39 8 64 16 25 9 97 20 160 24 159 11 563 3
627 -12z m-6987 -403 c47 -9 114 -20 150 -25 118 -17 293 -69 410 -122 177
-80 451 -275 575 -410 83 -90 159 -180 196 -231 19 -27 46 -65 61 -85 73 -98
179 -343 227 -522 7 -25 16 -58 21 -75 37 -127 43 -192 43 -465 -1 -271 -8
-345 -43 -465 -5 -16 -19 -64 -31 -105 -58 -201 -116 -338 -192 -450 -128
-189 -354 -438 -482 -531 -266 -195 -554 -327 -815 -373 -52 -10 -114 -21
-137 -27 -55 -12 -389 -12 -467 1 -33 5 -95 14 -136 19 -168 22 -431 124 -645
250 -385 227 -674 571 -829 986 -72 191 -87 257 -111 470 -35 306 -4 590 94
870 31 89 39 109 89 215 139 298 373 565 682 782 53 37 287 158 365 189 55 22
246 78 285 84 25 4 83 13 130 20 123 18 454 18 560 0z"/>
<path d="M9675 10460 c-16 -4 -50 -8 -74 -9 -46 -1 -52 -2 -191 -46 -313 -98
-606 -329 -761 -600 -62 -107 -129 -271 -149 -365 -48 -221 -57 -410 -25 -555
10 -44 21 -96 25 -115 26 -116 117 -309 217 -458 97 -145 178 -216 408 -360
11 -7 38 -21 60 -32 22 -10 51 -25 65 -33 43 -25 208 -76 315 -98 132 -27 452
-17 548 17 23 8 60 19 82 24 103 21 264 97 395 185 157 106 342 319 412 475
11 25 30 68 43 95 24 55 66 191 83 270 31 150 34 179 28 282 -8 147 -19 212
-54 343 -61 226 -246 522 -400 642 -184 144 -342 231 -498 277 -193 56 -436
85 -529 61z m-420 -763 c43 -23 69 -46 93 -81 28 -43 32 -56 32 -117 0 -163
-96 -257 -263 -259 -58 0 -102 17 -151 60 -57 51 -80 102 -80 185 0 64 3 75
37 127 51 80 118 118 207 118 54 -1 75 -6 125 -33z"/>
<path d="M2728 10044 c-4 -3 -30 -9 -60 -14 -277 -43 -521 -169 -725 -375
-158 -161 -248 -305 -335 -538 -34 -92 -44 -139 -58 -277 -17 -168 8 -429 50
-535 5 -11 21 -54 36 -95 76 -203 187 -365 348 -508 89 -79 97 -85 196 -143
123 -73 166 -92 315 -143 66 -23 239 -54 342 -62 124 -10 416 26 483 60 18 9
38 16 45 16 6 0 30 9 53 20 23 11 52 25 65 30 86 37 259 163 357 260 110 110
180 209 261 371 88 177 81 160 119 307 27 108 34 423 12 527 -7 33 -15 74 -18
90 -3 17 -9 39 -14 50 -4 11 -15 38 -23 60 -110 295 -352 585 -602 720 -38 21
-81 46 -95 55 -14 9 -34 19 -45 22 -11 3 -58 19 -105 36 -84 29 -134 41 -261
61 -69 11 -331 15 -341 5z m-341 -545 c67 -35 105 -101 111 -192 5 -86 -13
-138 -71 -196 -51 -52 -78 -67 -138 -76 -136 -20 -289 110 -289 246 0 95 66
191 160 233 52 23 166 16 227 -15z"/>
<path d="M6374 6791 c-169 -21 -310 -96 -447 -239 -203 -210 -204 -214 -66
-223 127 -9 1202 -11 1318 -2 92 6 92 6 86 31 -8 33 -133 170 -215 236 -89 72
-192 132 -259 152 -148 43 -301 59 -417 45z"/>
<path d="M960 5749 c-168 -11 -255 -40 -382 -126 -69 -47 -187 -157 -228 -215
-45 -62 -89 -161 -112 -253 -17 -69 -19 -100 -14 -230 6 -149 11 -198 41 -370
8 -49 20 -117 25 -150 6 -33 15 -85 20 -115 5 -30 14 -80 19 -110 17 -105 51
-305 61 -355 5 -27 12 -66 15 -85 3 -19 10 -57 16 -85 5 -27 14 -75 18 -105
22 -139 32 -193 36 -200 4 -7 20 -84 35 -180 5 -30 14 -82 20 -115 6 -33 15
-85 19 -115 5 -30 16 -95 26 -145 9 -49 21 -121 26 -160 23 -157 29 -192 39
-247 16 -90 27 -157 39 -233 6 -38 14 -77 17 -85 5 -14 10 -37 34 -180 11 -62
27 -165 40 -255 8 -56 27 -159 51 -280 6 -27 14 -77 19 -110 13 -89 28 -174
39 -230 5 -27 14 -79 20 -115 6 -36 16 -83 22 -105 6 -22 15 -58 21 -80 24
-92 84 -211 152 -302 73 -97 223 -195 356 -233 25 -7 56 -16 70 -21 14 -5 72
-13 129 -19 146 -14 9210 -14 9352 1 293 29 518 179 636 423 28 57 75 198 92
276 6 30 16 71 21 90 20 83 60 304 101 565 9 57 19 117 39 230 5 28 12 66 15
85 7 43 29 166 51 285 9 50 20 115 24 145 5 30 13 82 19 115 6 33 15 91 21
128 5 37 17 107 26 155 9 48 20 111 25 140 5 28 13 76 18 105 5 28 14 81 20
117 6 36 17 103 26 150 9 47 18 101 21 120 2 19 9 59 14 88 22 116 29 160 41
232 6 41 20 120 31 175 11 55 24 129 30 165 15 102 35 222 58 345 6 33 17 96
25 140 8 44 19 107 25 140 6 33 16 89 21 125 6 36 15 90 20 120 51 304 -23
536 -236 738 -119 113 -226 167 -397 198 -87 16 -448 17 -5413 18 -2926 1
-5363 -2 -5415 -5z m10784 -674 c10 -26 7 -183 -5 -255 -6 -36 -14 -96 -19
-135 -5 -38 -14 -97 -20 -130 -6 -33 -15 -85 -20 -115 -4 -30 -18 -109 -29
-175 -11 -66 -26 -151 -32 -190 -6 -38 -15 -80 -20 -93 -5 -13 -9 -38 -9 -57
0 -19 -4 -54 -10 -77 -5 -24 -14 -68 -19 -98 -6 -30 -20 -104 -32 -165 -11
-60 -25 -137 -30 -170 -4 -33 -13 -85 -18 -115 -5 -30 -14 -84 -20 -120 -5
-36 -17 -94 -26 -130 -9 -36 -20 -94 -25 -130 -5 -36 -14 -94 -20 -130 -6 -36
-15 -90 -19 -120 -16 -100 -23 -135 -32 -160 -4 -14 -13 -61 -19 -105 -6 -44
-15 -105 -21 -135 -5 -30 -14 -80 -19 -110 -5 -30 -14 -80 -19 -110 -6 -30
-15 -82 -20 -115 -5 -33 -17 -100 -26 -150 -10 -49 -21 -117 -26 -150 -5 -33
-14 -87 -19 -120 -5 -33 -14 -89 -20 -125 -5 -36 -14 -85 -20 -110 -6 -25 -17
-81 -25 -125 -7 -44 -19 -105 -26 -135 -6 -30 -14 -74 -18 -97 -11 -64 -34
-90 -93 -108 -46 -13 -538 -15 -4688 -15 -4396 0 -4638 1 -4651 18 -33 40 -44
72 -70 192 -18 83 -29 145 -38 210 -5 36 -16 103 -25 150 -20 99 -37 193 -65
355 -6 33 -15 87 -21 120 -5 33 -17 101 -25 150 -9 50 -20 115 -26 145 -5 30
-13 84 -19 120 -5 36 -14 92 -20 125 -5 33 -14 89 -19 125 -6 36 -17 103 -26
150 -9 47 -21 112 -25 145 -5 33 -14 85 -20 115 -5 30 -14 82 -19 115 -6 33
-14 83 -20 110 -13 65 -41 215 -52 285 -14 88 -28 171 -39 235 -5 33 -14 90
-19 126 -4 37 -11 71 -14 76 -6 9 -16 62 -38 191 -5 28 -13 78 -19 110 -5 31
-14 86 -20 122 -5 36 -14 85 -19 110 -61 308 -75 401 -87 565 -8 100 -1 106
117 115 52 3 2489 7 5415 8 4890 2 5322 1 5328 -13z"/>
<path d="M8971 4090 c-40 -10 -109 -75 -162 -154 -90 -134 -346 -417 -512
-566 -228 -207 -538 -390 -867 -514 -69 -26 -134 -51 -145 -56 -11 -5 -33 -11
-50 -15 -32 -6 -62 -14 -160 -40 -137 -36 -215 -46 -520 -66 -183 -12 -537 -2
-715 20 -153 19 -177 23 -278 48 -127 31 -242 30 -266 -2 -20 -27 -27 -67 -17
-101 7 -29 106 -106 196 -153 22 -12 58 -32 80 -44 45 -26 157 -84 225 -115
25 -11 79 -36 120 -55 41 -20 98 -43 125 -52 28 -9 64 -22 80 -29 60 -25 270
-86 355 -103 14 -3 59 -12 100 -20 41 -8 93 -19 115 -23 122 -25 511 -19 600
9 17 5 64 14 105 21 41 7 102 21 135 31 33 11 76 24 95 30 78 25 304 144 431
227 74 49 173 126 222 172 131 124 316 350 414 506 100 158 211 374 261 504
19 50 111 332 142 437 10 33 10 48 1 72 -17 39 -44 47 -110 31z"/>
<path d="M14040 4477 c-78 -29 -160 -94 -481 -382 -74 -66 -156 -138 -184
-160 -27 -22 -108 -91 -179 -155 -71 -63 -175 -153 -231 -200 -209 -174 -363
-310 -413 -364 -58 -64 -122 -189 -122 -238 0 -101 53 -193 249 -437 42 -51
85 -106 96 -121 11 -15 34 -45 52 -66 81 -98 261 -322 283 -354 13 -19 35 -49
49 -66 14 -17 38 -46 52 -65 29 -37 53 -67 179 -225 47 -58 108 -136 137 -173
162 -206 252 -291 328 -312 49 -14 189 -6 230 12 43 19 67 38 113 92 62 71 76
126 102 392 10 104 17 204 39 568 15 255 40 634 52 787 6 80 15 201 19 270 5
69 14 186 19 260 43 538 46 608 31 671 -30 126 -96 211 -198 250 -69 27 -173
34 -222 16z"/>
</g>
</svg>
